<svg xmlns="http://www.w3.org/2000/svg" xmlns:xlink="http://www.w3.org/1999/xlink" width="500" zoomAndPan="magnify" viewBox="0 0 375 374.999991" height="500" preserveAspectRatio="xMidYMid meet" version="1.0"><defs><g/><clipPath id="2bd47012b7"><path d="M 137.507812 129.789062 L 237.257812 129.789062 L 237.257812 245.289062 L 137.507812 245.289062 Z M 137.507812 129.789062 " clip-rule="nonzero"/></clipPath></defs><rect x="-37.5" width="450" fill="#ffffff" y="-37.499999" height="449.999989" fill-opacity="1"/><rect x="-37.5" width="450" fill="#ffffff" y="-37.499999" height="449.999989" fill-opacity="1"/><path fill="#ff7f30" d="M 279.539062 209.527344 L 275.832031 221.195312 C 266.015625 244.132812 249.46875 260.398438 226.191406 269.988281 C 202.78125 279.53125 177.859375 279.707031 151.429688 270.519531 C 126.496094 260.546875 108.480469 244.519531 97.382812 222.445312 C 93.839844 215.320312 91.300781 207.871094 89.761719 200.101562 L 88.296875 188.332031 C 87.847656 180.371094 88.578125 172.347656 90.488281 164.265625 C 97.097656 139.644531 111.265625 121.230469 132.984375 109.03125 C 154.707031 96.828125 179.03125 93.621094 205.960938 99.40625 C 232.589844 106.445312 252.824219 120.320312 266.664062 141.035156 C 280.503906 161.75 284.796875 184.582031 279.539062 209.527344 " fill-opacity="1" fill-rule="nonzero"/><g clip-path="url(#2bd47012b7)"><path fill="#ffffff" d="M 137.507812 233.644531 C 137.507812 234.402344 137.582031 235.152344 137.726562 235.894531 C 137.875 236.636719 138.09375 237.359375 138.382812 238.058594 C 138.675781 238.757812 139.03125 239.421875 139.449219 240.050781 C 139.871094 240.683594 140.351562 241.265625 140.886719 241.800781 C 141.421875 242.335938 142.003906 242.816406 142.632812 243.234375 C 143.261719 243.65625 143.929688 244.011719 144.628906 244.300781 C 145.328125 244.589844 146.050781 244.808594 146.792969 244.957031 C 147.535156 245.105469 148.285156 245.179688 149.042969 245.179688 L 202.882812 245.179688 C 203.636719 245.179688 204.386719 245.105469 205.132812 244.957031 C 205.875 244.808594 206.597656 244.589844 207.296875 244.300781 C 207.996094 244.011719 208.660156 243.65625 209.289062 243.234375 C 209.921875 242.816406 210.503906 242.335938 211.039062 241.800781 C 211.574219 241.265625 212.050781 240.683594 212.472656 240.050781 C 212.894531 239.421875 213.25 238.757812 213.539062 238.058594 C 213.828125 237.359375 214.046875 236.636719 214.195312 235.894531 C 214.34375 235.152344 214.417969 234.402344 214.417969 233.644531 L 214.417969 229.796875 L 225.953125 229.796875 C 226.710938 229.796875 227.460938 229.722656 228.203125 229.574219 C 228.949219 229.429688 229.667969 229.210938 230.367188 228.917969 C 231.070312 228.628906 231.734375 228.273438 232.363281 227.851562 C 232.992188 227.433594 233.578125 226.953125 234.113281 226.417969 C 234.648438 225.882812 235.125 225.300781 235.546875 224.671875 C 235.96875 224.039062 236.324219 223.375 236.613281 222.675781 C 236.902344 221.976562 237.121094 221.253906 237.269531 220.511719 C 237.417969 219.769531 237.492188 219.019531 237.492188 218.261719 L 237.492188 141.351562 C 237.492188 140.59375 237.417969 139.84375 237.269531 139.097656 C 237.121094 138.355469 236.902344 137.632812 236.613281 136.933594 C 236.324219 136.234375 235.96875 135.570312 235.546875 134.941406 C 235.125 134.308594 234.648438 133.726562 234.113281 133.191406 C 233.578125 132.65625 232.992188 132.179688 232.363281 131.757812 C 231.734375 131.335938 231.070312 130.980469 230.367188 130.691406 C 229.667969 130.402344 228.949219 130.183594 228.203125 130.035156 C 227.460938 129.886719 226.710938 129.8125 225.953125 129.8125 L 172.117188 129.8125 C 171.359375 129.8125 170.609375 129.886719 169.867188 130.035156 C 169.121094 130.183594 168.402344 130.402344 167.703125 130.691406 C 167 130.980469 166.335938 131.335938 165.707031 131.757812 C 165.078125 132.179688 164.496094 132.65625 163.957031 133.191406 C 163.421875 133.726562 162.945312 134.308594 162.523438 134.941406 C 162.101562 135.570312 161.746094 136.234375 161.457031 136.933594 C 161.167969 137.632812 160.949219 138.355469 160.800781 139.097656 C 160.652344 139.84375 160.578125 140.59375 160.578125 141.351562 L 160.578125 145.195312 L 149.042969 145.195312 C 148.285156 145.195312 147.535156 145.269531 146.792969 145.417969 C 146.050781 145.566406 145.328125 145.785156 144.628906 146.074219 C 143.929688 146.363281 143.261719 146.71875 142.632812 147.140625 C 142.003906 147.558594 141.421875 148.039062 140.886719 148.574219 C 140.351562 149.109375 139.871094 149.691406 139.449219 150.324219 C 139.03125 150.953125 138.675781 151.617188 138.382812 152.316406 C 138.09375 153.015625 137.875 153.738281 137.726562 154.480469 C 137.582031 155.222656 137.507812 155.972656 137.507812 156.730469 Z M 168.269531 141.351562 C 168.269531 140.839844 168.367188 140.347656 168.5625 139.878906 C 168.757812 139.40625 169.035156 138.992188 169.398438 138.628906 C 169.757812 138.269531 170.171875 137.992188 170.644531 137.796875 C 171.117188 137.601562 171.605469 137.503906 172.117188 137.503906 L 225.953125 137.503906 C 226.464844 137.503906 226.953125 137.601562 227.425781 137.796875 C 227.898438 137.992188 228.3125 138.269531 228.671875 138.628906 C 229.035156 138.992188 229.3125 139.40625 229.507812 139.878906 C 229.703125 140.347656 229.800781 140.839844 229.800781 141.351562 L 229.800781 218.261719 C 229.800781 218.769531 229.703125 219.261719 229.507812 219.734375 C 229.3125 220.203125 229.035156 220.621094 228.671875 220.980469 C 228.3125 221.339844 227.898438 221.617188 227.425781 221.8125 C 226.953125 222.007812 226.464844 222.105469 225.953125 222.105469 L 214.417969 222.105469 L 214.417969 156.730469 C 214.417969 155.972656 214.34375 155.222656 214.195312 154.480469 C 214.046875 153.738281 213.828125 153.015625 213.539062 152.316406 C 213.25 151.617188 212.894531 150.953125 212.472656 150.324219 C 212.050781 149.691406 211.574219 149.109375 211.039062 148.574219 C 210.503906 148.039062 209.921875 147.558594 209.289062 147.140625 C 208.660156 146.71875 207.996094 146.363281 207.296875 146.074219 C 206.597656 145.785156 205.875 145.566406 205.132812 145.417969 C 204.386719 145.269531 203.636719 145.195312 202.882812 145.195312 L 168.269531 145.195312 Z M 145.199219 156.730469 C 145.199219 156.222656 145.296875 155.730469 145.492188 155.261719 C 145.683594 154.789062 145.964844 154.375 146.324219 154.011719 C 146.683594 153.652344 147.101562 153.375 147.570312 153.179688 C 148.042969 152.984375 148.53125 152.886719 149.042969 152.886719 L 202.882812 152.886719 C 203.390625 152.886719 203.882812 152.984375 204.351562 153.179688 C 204.824219 153.375 205.238281 153.652344 205.601562 154.011719 C 205.960938 154.375 206.238281 154.789062 206.433594 155.261719 C 206.628906 155.730469 206.726562 156.222656 206.726562 156.730469 L 206.726562 233.644531 C 206.726562 234.152344 206.628906 234.644531 206.433594 235.113281 C 206.238281 235.585938 205.960938 236 205.601562 236.363281 C 205.238281 236.722656 204.824219 237 204.351562 237.195312 C 203.882812 237.390625 203.390625 237.488281 202.882812 237.488281 L 149.042969 237.488281 C 148.53125 237.488281 148.042969 237.390625 147.570312 237.195312 C 147.101562 237 146.683594 236.722656 146.324219 236.363281 C 145.964844 236 145.683594 235.585938 145.492188 235.113281 C 145.296875 234.644531 145.199219 234.152344 145.199219 233.644531 Z M 145.199219 156.730469 " fill-opacity="1" fill-rule="nonzero"/></g><g fill="#000000" fill-opacity="1"><g transform="translate(34.262906, 220.265137)"><g><path d="M 0 0 L 0 -22.554688 L 18.449219 -4.105469 L 28.710938 -4.105469 L 28.710938 -6.160156 L 2.054688 -32.816406 L 2.054688 -45.109375 L 10.265625 -53.320312 L 28.710938 -53.320312 L 32.816406 -49.214844 L 36.921875 -53.320312 L 36.921875 -34.871094 L 22.554688 -49.214844 L 12.316406 -49.214844 L 12.316406 -47.160156 L 38.976562 -20.5 L 38.976562 -8.210938 L 30.765625 0 L 8.210938 0 L 4.105469 -4.105469 Z M 0 0 "/></g></g></g><g fill="#000000" fill-opacity="1"><g transform="translate(82.430618, 220.265137)"><g><path d="M 10.265625 0 L 4.105469 -6.160156 L 4.105469 -49.214844 L 0 -53.320312 L 22.554688 -53.320312 L 20.5 -49.214844 L 20.5 -8.210938 L 16.394531 -4.105469 L 36.921875 -4.105469 L 32.816406 -8.210938 L 32.816406 -49.214844 L 30.765625 -53.320312 L 53.320312 -53.320312 L 49.214844 -49.214844 L 49.214844 -6.160156 L 43.054688 0 Z M 10.265625 0 "/></g></g></g><g fill="#000000" fill-opacity="1"><g transform="translate(142.913487, 220.265137)"><g><path d="M 0 0 L 4.105469 -4.105469 L 4.105469 -49.214844 L 0 -53.320312 L 18.449219 -53.320312 L 30.765625 -28.710938 L 41.003906 -49.214844 L 38.976562 -53.320312 L 59.476562 -53.320312 L 57.425781 -49.214844 L 57.425781 -4.105469 L 61.53125 0 L 38.976562 0 L 41.003906 -4.105469 L 41.003906 -36.921875 L 24.605469 -4.105469 L 8.210938 -36.921875 L 8.210938 -4.105469 L 10.265625 0 Z M 0 0 "/></g></g></g><g fill="#000000" fill-opacity="1"><g transform="translate(211.579805, 220.265137)"><g><path d="M 0 0 L 4.105469 -4.105469 L 4.105469 -49.214844 L 0 -53.320312 L 18.449219 -53.320312 L 30.765625 -28.710938 L 41.003906 -49.214844 L 38.976562 -53.320312 L 59.476562 -53.320312 L 57.425781 -49.214844 L 57.425781 -4.105469 L 61.53125 0 L 38.976562 0 L 41.003906 -4.105469 L 41.003906 -36.921875 L 24.605469 -4.105469 L 8.210938 -36.921875 L 8.210938 -4.105469 L 10.265625 0 Z M 0 0 "/></g></g></g><g fill="#000000" fill-opacity="1"><g transform="translate(280.246124, 220.265137)"><g><path d="M 32.816406 -28.710938 L 32.816406 -45.109375 L 28.710938 -49.214844 L 24.605469 -49.214844 L 20.5 -45.109375 L 20.5 -28.710938 Z M 0 0 L 4.105469 -4.105469 L 4.105469 -41.003906 L 16.394531 -53.320312 L 36.921875 -53.320312 L 49.214844 -41.003906 L 49.214844 -4.105469 L 53.320312 0 L 30.765625 0 L 32.816406 -4.105469 L 32.816406 -20.5 L 36.921875 -24.605469 L 16.394531 -24.605469 L 20.5 -20.5 L 20.5 -4.105469 L 22.554688 0 Z M 0 0 "/></g></g></g></svg>